# xmcd
#
# Track frame offsets: 
#        150
#        10849
#        24421
#        37828
#        50556
#        62407
#        74467
#        87366
#        100163
#        112837
#        125436
#        138595
#        151817
#        163759
#
# Disc length: 2336 seconds
#
# Revision: 2
# Processed by: cddbd v1.5.2PL0 Copyright (c) Steve Scherf et al.
# Submitted via: ExactAudioCopy v1.0b4
#
DISCID=ac091e0e
DTITLE=Bukka White - Shake' Em on Down
DYEAR=2004
DGENRE=Blues
TTITLE0=Good Gin Blues
TTITLE1=Shake 'Em On Down
TTITLE2=When Can I Change My Clothes
TTITLE3=High Fever Blues
TTITLE4=Bukka's Jitterburg Swing
TTITLE5=District Atterney Blues
TTITLE6=Strange Place Blues
TTITLE7=Sleepy Myn Blues
TTITLE8=Pinebluff Arkansas
TTITLE9=Fixin' To Die Blues
TTITLE10=Special Streamline
TTITLE11=Black Train Blues
TTITLE12=Parchman Farm Blues
TTITLE13=Aberdeen Mississippi Blues
EXTD=
EXTT0=
EXTT1=
EXTT2=
EXTT3=
EXTT4=
EXTT5=
EXTT6=
EXTT7=
EXTT8=
EXTT9=
EXTT10=
EXTT11=
EXTT12=
EXTT13=
PLAYORDER=
